<svg width="90" height="17" viewBox="0 0 90 17" fill="none" xmlns="http://www.w3.org/2000/svg">
<g clip-path="url(#clip0_166_1143)">
<path d="M23.861 3.60401L28.6189 16.4922H31.9409L36.6988 3.60401H33.8305L30.3321 13.5718L26.7823 3.60401H23.861ZM37.2264 6.5992C36.6979 7.60657 36.4441 8.76432 36.4441 10.0759C36.4441 11.3875 36.6962 12.5427 37.2498 13.5249C37.7786 14.5065 38.5837 15.3115 39.5653 15.8403C40.5718 16.394 41.7305 16.6461 43.0899 16.6461C44.6248 16.6461 45.9086 16.2428 46.9412 15.3875C47.9729 14.5566 48.6022 13.4753 48.8534 12.1654H46.1346C45.9329 12.8955 45.5557 13.4492 45.0047 13.8517C44.4249 14.2541 43.7209 14.4305 42.8899 14.4305C41.833 14.4305 40.9778 14.1037 40.3476 13.4492C39.6931 12.7947 39.3402 11.9134 39.2907 10.7808V10.6296H49.0064C49.0566 10.288 49.0819 9.94315 49.082 9.59786C49.0568 8.3645 48.7804 7.28155 48.2267 6.35066C47.6907 5.44494 46.9154 4.7045 45.986 4.21074C45.0299 3.70748 43.9469 3.45538 42.7135 3.45538C41.4801 3.45538 40.398 3.7327 39.441 4.28637C38.4928 4.8256 37.722 5.62922 37.2229 6.5992H37.2264ZM46.3136 8.63828H39.3906C39.4915 7.7326 39.8443 7.02775 40.4988 6.47408C41.1417 5.92081 41.9664 5.6248 42.8143 5.6431C43.7704 5.6431 44.5527 5.91954 45.1802 6.44887C45.8078 6.9782 46.1841 7.70739 46.3102 8.63828H46.3136ZM57.3965 3.60401H56.7881C55.7816 3.60401 55.0011 3.77785 54.4222 4.13248C53.8278 4.46749 53.3327 4.95396 52.9872 5.54235L52.6856 3.60401H50.2684V16.4957H52.9872V10.0264C52.9872 8.91909 53.2392 7.9873 53.7425 7.25719C54.2458 6.52708 55.0515 6.14984 56.184 6.14984H57.3922L57.3965 3.60401ZM58.5508 0.00473022V12.9929C58.5508 14.2011 58.8275 15.0821 59.3809 15.6361C59.9345 16.215 60.8159 16.4922 62.0492 16.4922H64.6672V14.1011H62.6029C62.0996 14.1011 61.7728 14.0003 61.5712 13.7986C61.3695 13.597 61.2687 13.2197 61.2687 12.7165V5.99518H64.3899V3.60401H61.2687V0.00473022H58.5508ZM65.692 6.5992C65.1644 7.60657 64.9097 8.76432 64.9097 10.0759C64.9097 11.3875 65.1618 12.5427 65.7154 13.5249C66.2442 14.5065 67.0493 15.3115 68.0309 15.8403C69.0374 16.394 70.1952 16.6461 71.5546 16.6461C73.0904 16.6461 74.3742 16.2428 75.4059 15.3875C76.4385 14.5566 77.0678 13.4753 77.3181 12.1654H74.6002C74.3985 12.8955 74.0213 13.4492 73.4702 13.8517C72.8922 14.2541 72.1865 14.4305 71.3564 14.4305C70.2995 14.4305 69.4442 14.1037 68.814 13.4492C68.1587 12.7947 67.8067 11.9134 67.7571 10.7808V10.6296H77.4737C77.5232 10.2879 77.5482 9.94311 77.5484 9.59786C77.5232 8.3645 77.2459 7.28155 76.6923 6.35066C76.1555 5.44333 75.3786 4.70186 74.4472 4.20811C73.4911 3.70485 72.4081 3.45284 71.1747 3.45284C69.9414 3.45284 68.8592 3.73007 67.9023 4.28374C66.9555 4.82469 66.1864 5.62912 65.6885 6.5992H65.692ZM74.7792 8.63828H67.8571C67.9579 7.7326 68.3108 7.02775 68.9644 6.47408C69.6077 5.92097 70.4326 5.625 71.2808 5.6431C72.2369 5.6431 73.0191 5.91954 73.6475 6.44887C74.276 6.9782 74.6497 7.70739 74.7757 8.63828H74.7792ZM81.8491 9.89689L77.0156 16.4922H79.9604L83.3841 11.8099L86.7826 16.4922H89.9542L85.0955 9.89689L89.6769 3.60401H86.7026L83.5562 7.95864L80.4593 3.60401H77.2877L81.8491 9.89689Z" fill="white"/>
<g clip-path="url(#clip1_166_1143)">
<path d="M11.1179 14.7283C10.9948 15.1631 10.737 15.5476 10.3816 15.8267C10.0255 16.1049 9.59031 16.2632 9.1386 16.2788H6.12849L0 3.46487H6.12069L9.18191 9.87488C9.18191 9.87488 11.4159 13.675 11.1179 14.7283Z" fill="#7A59FB"/>
<path d="M11.1179 14.7283C11.4159 13.675 9.1828 9.87747 9.1828 9.87747H12.4926L11.1179 14.7283Z" fill="url(#paint0_linear_166_1143)"/>
<path d="M12.4926 9.87748H18.4695V3.46747H16.0822C15.6287 3.46772 15.1871 3.61211 14.821 3.87979C14.4549 4.14793 14.1837 4.52565 14.0466 4.95823L12.4926 9.87748Z" fill="#7B59FB"/>
</g>
</g>
<defs>
<linearGradient id="paint0_linear_166_1143" x1="10.9343" y1="9.53791" x2="9.50503" y2="14.6053" gradientUnits="userSpaceOnUse">
<stop stop-color="#7B59FB"/>
<stop offset="1" stop-color="#7B59FB" stop-opacity="0"/>
</linearGradient>
<clipPath id="clip0_166_1143">
<rect width="90" height="16.5448" fill="white"/>
</clipPath>
<clipPath id="clip1_166_1143">
<rect width="18.4695" height="12.814" fill="white" transform="translate(0 3.46487)"/>
</clipPath>
</defs>
</svg>
